<svg xmlns="http://www.w3.org/2000/svg" xmlns:xlink="http://www.w3.org/1999/xlink" width="250" zoomAndPan="magnify" viewBox="0 0 187.5 67.499998" height="90" preserveAspectRatio="xMidYMid meet" version="1.0"><defs><g/><clipPath id="id1"><path d="M 28 53 L 150 53 L 150 64 L 28 64 Z M 28 53 " clip-rule="nonzero"/></clipPath><clipPath id="id2"><path d="M 49.882812 13.277344 L 149.332031 61.390625 L 126.902344 107.753906 L 27.449219 59.640625 Z M 49.882812 13.277344 " clip-rule="nonzero"/></clipPath><clipPath id="id3"><path d="M 49.882812 13.277344 L 149.332031 61.390625 L 126.902344 107.753906 L 27.449219 59.640625 Z M 49.882812 13.277344 " clip-rule="nonzero"/></clipPath><clipPath id="id4"><path d="M 12 2 L 38 2 L 38 24 L 12 24 Z M 12 2 " clip-rule="nonzero"/></clipPath><clipPath id="id5"><path d="M 13.496094 0.933594 L 38.792969 3.015625 L 36.957031 25.332031 L 11.660156 23.253906 Z M 13.496094 0.933594 " clip-rule="nonzero"/></clipPath><clipPath id="id6"><path d="M 13.496094 0.933594 L 38.792969 3.015625 L 36.957031 25.332031 L 11.660156 23.253906 Z M 13.496094 0.933594 " clip-rule="nonzero"/></clipPath></defs><g clip-path="url(#id1)"><g clip-path="url(#id2)"><g clip-path="url(#id3)"><path fill="#db9232" d="M 28.976562 57.1875 C 32.023438 55.117188 128.5625 48.945312 149.097656 61.871094 C 125.574219 56.398438 61.988281 58.101562 40.902344 62.140625 C 42.121094 62.597656 43.808594 63.035156 46.195312 63.417969 C 45.148438 64.367188 38.492188 63.292969 35.648438 62.515625 C 31.03125 61.390625 26.28125 59.019531 28.96875 57.199219 Z M 28.976562 57.1875 " fill-opacity="1" fill-rule="nonzero"/></g></g></g><g fill="#db9232" fill-opacity="1"><g transform="translate(13.358618, 49.204844)"><g><path d="M 21.984375 -21.339844 C 21.984375 -21.222656 21.925781 -21.164062 21.925781 -21.046875 C 21.925781 -20.757812 22.21875 -20.40625 22.625 -20.40625 C 23.914062 -20.40625 24.789062 -25.257812 24.789062 -26.25 C 24.789062 -27.832031 23.972656 -30.460938 21.164062 -30.460938 C 12.804688 -30.460938 0.644531 -11.984375 0.644531 -3.976562 C 0.644531 -1.285156 2.457031 2.398438 6.78125 2.398438 C 13.449219 2.398438 20.757812 -7.777344 21.28125 -12.160156 C 22.101562 -12.335938 23.035156 -12.335938 23.855469 -12.453125 C 24.324219 -12.570312 24.496094 -12.804688 24.496094 -13.097656 C 24.496094 -13.449219 24.148438 -14.558594 23.621094 -14.675781 C 23.503906 -14.734375 22.742188 -14.734375 22.570312 -14.734375 C 18.535156 -14.734375 12.042969 -12.335938 8.359375 -10.289062 C 8.070312 -10.113281 7.71875 -9.882812 7.542969 -9.707031 C 7.25 -9.472656 7.191406 -9.121094 7.191406 -8.886719 C 7.191406 -8.476562 7.308594 -7.835938 7.835938 -7.835938 C 7.894531 -7.835938 8.070312 -7.835938 8.300781 -8.070312 C 10.816406 -9.707031 16.136719 -11.167969 19.46875 -11.808594 C 18.125 -8.886719 10.875 0.585938 6.488281 0.585938 C 4.210938 0.585938 3.859375 -2.457031 3.859375 -3.742188 C 3.859375 -8.359375 7.25 -14.089844 9.996094 -17.773438 C 11.460938 -19.820312 18.007812 -27.890625 21.574219 -27.890625 C 22.859375 -27.890625 23.269531 -26.136719 23.269531 -25.316406 C 23.269531 -23.914062 22.625 -22.625 21.984375 -21.339844 Z M 21.984375 -21.339844 "/></g></g></g><g fill="#db9232" fill-opacity="1"><g transform="translate(34.931725, 49.204844)"><g><path d="M 0.410156 -3.273438 C 0.585938 -1.402344 1.753906 0 3.683594 0 C 9.179688 0 16.136719 -13.449219 10.347656 -16.253906 C 10.054688 -16.429688 9.648438 -16.488281 9.238281 -16.488281 C 7.660156 -16.488281 6.140625 -15.261719 5.203125 -14.03125 C 4.328125 -14.03125 3.917969 -13.621094 3.449219 -12.863281 C 1.871094 -10.464844 0.0585938 -6.199219 0.410156 -3.273438 Z M 4.269531 -6.664062 C 4.96875 -8.242188 6.140625 -10.757812 7.074219 -12.042969 C 7.308594 -12.277344 7.777344 -12.6875 7.601562 -12.980469 C 7.542969 -13.214844 7.191406 -13.449219 6.898438 -13.5625 C 7.542969 -14.617188 8.417969 -15.144531 9.121094 -15.144531 C 9.472656 -15.144531 9.707031 -14.96875 9.996094 -14.851562 C 13.5625 -12.335938 6.140625 -1.636719 3.742188 -1.636719 C 3.332031 -1.636719 3.097656 -1.871094 3.039062 -2.457031 C 2.921875 -3.683594 3.976562 -6.140625 4.269531 -6.664062 Z M 4.269531 -6.664062 "/></g></g></g><g fill="#db9232" fill-opacity="1"><g transform="translate(47.150643, 49.204844)"><g><path d="M 1.988281 -0.46875 C 3.683594 -0.46875 7.71875 -6.316406 8.535156 -7.660156 L 8.476562 -7.308594 C 8.242188 -5.789062 8.128906 -3.859375 9.179688 -2.746094 C 9.589844 -2.398438 10.054688 -2.164062 10.464844 -2.164062 C 13.5625 -2.164062 18.242188 -9.824219 19.410156 -11.460938 C 19.292969 -11.925781 19.058594 -12.160156 18.769531 -12.160156 C 18.710938 -12.160156 18.652344 -12.101562 18.652344 -12.101562 C 18.359375 -11.695312 13.332031 -4.503906 11.808594 -4.503906 C 11.695312 -4.503906 11.578125 -4.558594 11.519531 -4.675781 C 11.402344 -4.96875 11.460938 -5.554688 11.636719 -6.488281 C 12.160156 -8.535156 13.914062 -12.042969 14.265625 -12.628906 C 14.792969 -13.507812 13.332031 -14.03125 12.335938 -14.03125 C 11.050781 -14.03125 9.882812 -11.808594 9.472656 -10.816406 C 7.308594 -7.835938 3.800781 -2.980469 2.980469 -3.039062 C 1.8125 -3.976562 7.484375 -14.148438 8.886719 -15.433594 C 8.710938 -16.429688 7.835938 -17.363281 6.898438 -17.363281 C 6.488281 -17.363281 6.023438 -17.1875 5.671875 -16.664062 C 2.980469 -13.332031 -2.691406 -2.398438 1.109375 -0.703125 C 1.402344 -0.585938 1.695312 -0.46875 1.988281 -0.46875 Z M 1.988281 -0.46875 "/></g></g></g><g fill="#db9232" fill-opacity="1"><g transform="translate(62.000435, 49.204844)"><g><path d="M 10.289062 -18.417969 C 10.113281 -18.652344 9.824219 -18.886719 9.589844 -19.117188 C 10.40625 -20.464844 11.050781 -21.75 11.460938 -22.859375 C 11.808594 -23.855469 11.402344 -26.484375 10.054688 -26.367188 C 7.601562 -26.191406 4.851562 -21.808594 7.777344 -18.886719 C 5.964844 -15.84375 3.917969 -11.925781 2.632812 -10.171875 C 2.574219 -10.054688 2.632812 -9.472656 3.039062 -9.472656 C 3.15625 -9.472656 3.332031 -9.53125 3.683594 -9.765625 C 5.027344 -11.460938 6.257812 -14.148438 8.769531 -17.832031 C 8.945312 -17.597656 9.121094 -17.363281 9.179688 -17.1875 C 10.523438 -14.617188 3.097656 -5.554688 3.214844 -1.109375 C 3.214844 0.234375 3.859375 2.398438 5.554688 2.398438 C 5.730469 2.398438 5.847656 2.339844 6.023438 2.28125 C 9.121094 0.761719 15.667969 -9.882812 16.488281 -10.992188 C 16.605469 -11.167969 16.488281 -11.460938 16.253906 -11.578125 C 16.136719 -11.636719 16.078125 -11.695312 15.960938 -11.695312 C 15.84375 -11.695312 15.785156 -11.636719 15.609375 -11.519531 C 14.265625 -9.707031 7.542969 0.644531 5.847656 0.351562 C 6.78125 -3.039062 10.347656 -9.121094 11.167969 -11.402344 C 12.042969 -13.5625 12.746094 -16.839844 10.289062 -18.417969 Z M 9.882812 -23.914062 C 10.171875 -23.914062 10.230469 -23.5625 9.882812 -22.625 C 9.648438 -21.867188 9.238281 -21.046875 8.828125 -20.40625 C 7.777344 -21.808594 9.355469 -23.914062 9.882812 -23.914062 Z M 9.882812 -23.914062 "/></g></g></g><g fill="#db9232" fill-opacity="1"><g transform="translate(74.043958, 49.204844)"><g><path d="M 17.421875 -3.273438 L 17.421875 -3.449219 C 18.59375 -6.957031 20.113281 -10.113281 21.867188 -13.332031 C 22.511719 -14.617188 20.582031 -15.320312 19.644531 -15.375 C 19.527344 -15.375 19.46875 -15.375 19.410156 -15.320312 C 17.539062 -14.851562 13.449219 -8.710938 12.21875 -6.957031 C 12.042969 -6.78125 11.984375 -6.546875 11.925781 -6.546875 C 11.925781 -6.546875 11.984375 -6.664062 12.042969 -6.957031 C 13.449219 -10.113281 15.144531 -13.097656 16.605469 -16.195312 L 16.664062 -16.3125 C 16.957031 -17.074219 16.957031 -17.714844 16.429688 -18.242188 C 16.019531 -18.652344 15.203125 -19.058594 14.558594 -19.058594 C 14.5 -19.058594 14.324219 -19.058594 14.265625 -19 C 13.449219 -18.710938 3.683594 -5.203125 2.632812 -3.625 L 7.425781 -12.628906 C 7.71875 -13.214844 7.953125 -13.449219 7.542969 -14.03125 L 7.425781 -14.089844 C 6.898438 -14.675781 6.199219 -14.910156 5.378906 -14.910156 C 4.558594 -14.910156 4.09375 -14.734375 3.742188 -13.972656 C 1.636719 -9.472656 1.167969 -8.769531 -0.527344 -4.035156 C -0.820312 -3.097656 -1.050781 -2.046875 -0.410156 -1.226562 C 0 -0.761719 1.167969 -0.0585938 1.8125 -0.117188 C 2.164062 -0.117188 2.574219 -0.992188 2.804688 -1.285156 C 5.730469 -5.730469 8.945312 -10.113281 12.21875 -14.207031 C 10.875 -11.808594 9.824219 -9.53125 9.0625 -7.191406 C 8.828125 -6.316406 8.59375 -5.261719 9.003906 -4.328125 C 9.179688 -3.742188 9.882812 -2.980469 10.523438 -2.921875 C 10.875 -2.980469 10.992188 -3.15625 11.109375 -3.332031 C 13.097656 -6.199219 15.203125 -8.886719 17.304688 -11.636719 C 17.421875 -11.75 17.480469 -11.925781 17.480469 -11.925781 C 17.539062 -11.925781 17.480469 -11.75 17.363281 -11.578125 C 16.3125 -9.121094 15.320312 -6.664062 14.734375 -4.035156 C 14.558594 -3.15625 14.558594 -1.8125 15.492188 -1.167969 C 15.84375 -0.992188 16.136719 -0.820312 16.488281 -0.820312 C 19.9375 -0.820312 25.082031 -8.242188 27.070312 -11.285156 C 26.953125 -11.695312 26.777344 -11.925781 26.542969 -11.925781 C 26.484375 -11.925781 26.425781 -11.925781 26.367188 -11.808594 C 26.25 -11.695312 25.199219 -10.230469 23.972656 -8.59375 C 23.269531 -7.71875 18.769531 -2.398438 17.480469 -2.398438 C 17.304688 -2.398438 17.246094 -2.632812 17.421875 -3.273438 Z M 17.421875 -3.273438 "/></g></g></g><g fill="#db9232" fill-opacity="1"><g transform="translate(96.435567, 49.204844)"><g><path d="M 11.167969 -4.558594 C 11.050781 -4.910156 11.109375 -5.496094 11.402344 -6.429688 C 11.636719 -7.835938 12.394531 -10.40625 13.5625 -11.34375 C 14.03125 -11.636719 13.972656 -11.695312 13.621094 -12.101562 C 13.039062 -12.804688 12.394531 -13.097656 11.808594 -13.097656 C 11.578125 -13.097656 11.34375 -13.039062 11.050781 -12.921875 C 11.519531 -14.617188 11.808594 -16.488281 10.523438 -17.890625 C 10.171875 -18.242188 9.648438 -18.59375 9.0625 -18.59375 C 8.417969 -18.59375 7.71875 -18.242188 6.898438 -17.539062 C 3.390625 -14.675781 -3.15625 -2.921875 1.460938 -0.820312 C 1.8125 -0.644531 2.046875 -0.527344 2.398438 -0.527344 C 2.515625 -0.527344 2.632812 -0.585938 2.746094 -0.585938 C 4.328125 -1.285156 6.429688 -4.734375 8.183594 -7.601562 C 8.183594 -7.484375 8.183594 -7.425781 8.128906 -7.25 C 7.894531 -5.671875 7.71875 -3.742188 8.886719 -2.632812 C 9.238281 -2.28125 9.648438 -2.046875 10.171875 -2.046875 C 13.332031 -2.046875 18.066406 -9.765625 19.234375 -11.460938 C 19.058594 -12.101562 18.886719 -12.101562 18.417969 -12.101562 C 18.125 -11.695312 13.039062 -4.386719 11.519531 -4.386719 C 11.402344 -4.386719 11.285156 -4.445312 11.167969 -4.558594 Z M 8.769531 -14.5 C 9.238281 -14.910156 9.589844 -15.203125 9.882812 -15.203125 C 10.347656 -15.203125 10.464844 -14.265625 10.230469 -12.335938 C 9.707031 -11.925781 9.414062 -11.34375 9.121094 -10.757812 C 6.957031 -7.777344 4.210938 -3.15625 3.332031 -3.15625 C 2.515625 -3.859375 6.488281 -12.042969 8.769531 -14.5 Z M 8.769531 -14.5 "/></g></g></g><g fill="#db9232" fill-opacity="1"><g transform="translate(110.759173, 49.204844)"><g><path d="M 11.519531 -12.570312 L 11.519531 -12.628906 C 11.695312 -12.980469 11.75 -13.332031 11.808594 -13.679688 C 12.21875 -15.609375 10.875 -17.246094 9.003906 -17.246094 C 8.359375 -17.246094 7.71875 -17.074219 7.015625 -16.605469 C 3.390625 -14.148438 -2.164062 -5.261719 1.226562 -1.109375 C 1.871094 -0.234375 2.804688 0.117188 3.917969 0.117188 C 8.128906 0.117188 12.101562 -5.496094 14.207031 -8.476562 C 14.96875 -9.589844 15.609375 -10.464844 15.960938 -10.933594 C 15.960938 -11.402344 15.609375 -11.578125 15.375 -11.578125 C 15.320312 -11.578125 15.261719 -11.578125 15.261719 -11.519531 C 12.921875 -8.300781 8.128906 -1.8125 3.800781 -1.8125 C -0.0585938 -2.28125 7.660156 -14.851562 10.054688 -14.851562 C 10.171875 -14.851562 10.347656 -14.792969 10.40625 -14.675781 C 10.875 -13.855469 9.414062 -11.285156 8.769531 -10.640625 C 8.535156 -10.347656 7.777344 -9.648438 8.359375 -9.414062 C 8.417969 -9.355469 8.535156 -9.355469 8.59375 -9.355469 C 9.707031 -9.355469 11.109375 -11.75 11.519531 -12.570312 Z M 11.519531 -12.570312 "/></g></g></g><g fill="#db9232" fill-opacity="1"><g transform="translate(122.334985, 49.204844)"><g><path d="M 10.289062 -18.417969 C 10.113281 -18.652344 9.824219 -18.886719 9.589844 -19.117188 C 10.40625 -20.464844 11.050781 -21.75 11.460938 -22.859375 C 11.808594 -23.855469 11.402344 -26.484375 10.054688 -26.367188 C 7.601562 -26.191406 4.851562 -21.808594 7.777344 -18.886719 C 5.964844 -15.84375 3.917969 -11.925781 2.632812 -10.171875 C 2.574219 -10.054688 2.632812 -9.472656 3.039062 -9.472656 C 3.15625 -9.472656 3.332031 -9.53125 3.683594 -9.765625 C 5.027344 -11.460938 6.257812 -14.148438 8.769531 -17.832031 C 8.945312 -17.597656 9.121094 -17.363281 9.179688 -17.1875 C 10.523438 -14.617188 3.097656 -5.554688 3.214844 -1.109375 C 3.214844 0.234375 3.859375 2.398438 5.554688 2.398438 C 5.730469 2.398438 5.847656 2.339844 6.023438 2.28125 C 9.121094 0.761719 15.667969 -9.882812 16.488281 -10.992188 C 16.605469 -11.167969 16.488281 -11.460938 16.253906 -11.578125 C 16.136719 -11.636719 16.078125 -11.695312 15.960938 -11.695312 C 15.84375 -11.695312 15.785156 -11.636719 15.609375 -11.519531 C 14.265625 -9.707031 7.542969 0.644531 5.847656 0.351562 C 6.78125 -3.039062 10.347656 -9.121094 11.167969 -11.402344 C 12.042969 -13.5625 12.746094 -16.839844 10.289062 -18.417969 Z M 9.882812 -23.914062 C 10.171875 -23.914062 10.230469 -23.5625 9.882812 -22.625 C 9.648438 -21.867188 9.238281 -21.046875 8.828125 -20.40625 C 7.777344 -21.808594 9.355469 -23.914062 9.882812 -23.914062 Z M 9.882812 -23.914062 "/></g></g></g><g fill="#db9232" fill-opacity="1"><g transform="translate(134.378508, 49.204844)"><g><path d="M 11.167969 -4.558594 C 11.050781 -4.910156 11.109375 -5.496094 11.402344 -6.429688 C 11.636719 -7.835938 12.394531 -10.40625 13.5625 -11.34375 C 14.03125 -11.636719 13.972656 -11.695312 13.621094 -12.101562 C 13.039062 -12.804688 12.394531 -13.097656 11.808594 -13.097656 C 11.578125 -13.097656 11.34375 -13.039062 11.050781 -12.921875 C 11.519531 -14.617188 11.808594 -16.488281 10.523438 -17.890625 C 10.171875 -18.242188 9.648438 -18.59375 9.0625 -18.59375 C 8.417969 -18.59375 7.71875 -18.242188 6.898438 -17.539062 C 3.390625 -14.675781 -3.15625 -2.921875 1.460938 -0.820312 C 1.8125 -0.644531 2.046875 -0.527344 2.398438 -0.527344 C 2.515625 -0.527344 2.632812 -0.585938 2.746094 -0.585938 C 4.328125 -1.285156 6.429688 -4.734375 8.183594 -7.601562 C 8.183594 -7.484375 8.183594 -7.425781 8.128906 -7.25 C 7.894531 -5.671875 7.71875 -3.742188 8.886719 -2.632812 C 9.238281 -2.28125 9.648438 -2.046875 10.171875 -2.046875 C 13.332031 -2.046875 18.066406 -9.765625 19.234375 -11.460938 C 19.058594 -12.101562 18.886719 -12.101562 18.417969 -12.101562 C 18.125 -11.695312 13.039062 -4.386719 11.519531 -4.386719 C 11.402344 -4.386719 11.285156 -4.445312 11.167969 -4.558594 Z M 8.769531 -14.5 C 9.238281 -14.910156 9.589844 -15.203125 9.882812 -15.203125 C 10.347656 -15.203125 10.464844 -14.265625 10.230469 -12.335938 C 9.707031 -11.925781 9.414062 -11.34375 9.121094 -10.757812 C 6.957031 -7.777344 4.210938 -3.15625 3.332031 -3.15625 C 2.515625 -3.859375 6.488281 -12.042969 8.769531 -14.5 Z M 8.769531 -14.5 "/></g></g></g><g fill="#db9232" fill-opacity="1"><g transform="translate(148.702114, 49.204844)"><g><path d="M 11.519531 -12.570312 L 11.519531 -12.628906 C 11.695312 -12.980469 11.75 -13.332031 11.808594 -13.679688 C 12.21875 -15.609375 10.875 -17.246094 9.003906 -17.246094 C 8.359375 -17.246094 7.71875 -17.074219 7.015625 -16.605469 C 3.390625 -14.148438 -2.164062 -5.261719 1.226562 -1.109375 C 1.871094 -0.234375 2.804688 0.117188 3.917969 0.117188 C 8.128906 0.117188 12.101562 -5.496094 14.207031 -8.476562 C 14.96875 -9.589844 15.609375 -10.464844 15.960938 -10.933594 C 15.960938 -11.402344 15.609375 -11.578125 15.375 -11.578125 C 15.320312 -11.578125 15.261719 -11.578125 15.261719 -11.519531 C 12.921875 -8.300781 8.128906 -1.8125 3.800781 -1.8125 C -0.0585938 -2.28125 7.660156 -14.851562 10.054688 -14.851562 C 10.171875 -14.851562 10.347656 -14.792969 10.40625 -14.675781 C 10.875 -13.855469 9.414062 -11.285156 8.769531 -10.640625 C 8.535156 -10.347656 7.777344 -9.648438 8.359375 -9.414062 C 8.417969 -9.355469 8.535156 -9.355469 8.59375 -9.355469 C 9.707031 -9.355469 11.109375 -11.75 11.519531 -12.570312 Z M 11.519531 -12.570312 "/></g></g></g><g fill="#db9232" fill-opacity="1"><g transform="translate(160.277925, 49.204844)"><g><path d="M -1.8125 11.285156 C -1.285156 11.285156 -0.644531 11.109375 -0.0585938 10.992188 C 6.546875 9.121094 11.519531 -5.613281 13.621094 -10.40625 C 14.148438 -11.578125 14.675781 -12.804688 15.203125 -13.914062 C 15.667969 -15.144531 14.265625 -15.550781 13.332031 -15.550781 C 12.863281 -15.550781 12.394531 -15.492188 12.21875 -15.027344 C 10.816406 -12.335938 4.328125 -1.050781 2.515625 -1.109375 C 1.050781 -1.167969 4.09375 -7.777344 4.386719 -8.359375 C 5.261719 -10.171875 6.488281 -12.570312 7.777344 -13.972656 C 8.128906 -14.324219 8.242188 -14.558594 7.953125 -15.027344 C 7.601562 -15.84375 6.78125 -16.195312 5.90625 -16.195312 C 5.496094 -16.195312 5.261719 -15.902344 5.027344 -15.550781 C 2.632812 -12.628906 -0.351562 -6.316406 -0.117188 -2.515625 C -0.0585938 -1.109375 0.644531 0.410156 2.339844 0.46875 C 4.675781 0.585938 7.835938 -5.613281 8.945312 -7.308594 C 6.429688 -0.878906 2.105469 9.238281 -2.746094 9.238281 C -4.675781 9.238281 -5.261719 7.835938 -5.496094 6.199219 C -5.554688 5.789062 -5.671875 5.554688 -6.023438 5.496094 C -6.429688 5.378906 -6.316406 5.964844 -6.257812 6.257812 C -5.964844 8.828125 -4.734375 11.285156 -1.8125 11.285156 Z M -1.8125 11.285156 "/></g></g></g><g clip-path="url(#id4)"><g clip-path="url(#id5)"><g clip-path="url(#id6)"><path fill="#db9232" d="M 16.070312 19.070312 L 19.1875 23.871094 C 19.1875 23.871094 22.9375 17.203125 30.726562 15.441406 C 30.726562 15.441406 23.828125 16.238281 19.214844 21.203125 L 17.894531 19.183594 L 17.410156 18.457031 L 18.027344 17.652344 C 16.710938 17.46875 15.382812 17.410156 14.496094 15.960938 C 13.609375 14.511719 15.25 10.914062 18.144531 10.238281 C 18.273438 10.207031 18.402344 10.183594 18.527344 10.164062 C 18.277344 11.375 17.976562 12.960938 17.898438 13.117188 C 19.472656 10.078125 26.054688 -0.996094 29.183594 7.589844 C 29.183594 7.589844 29.277344 7.292969 29.375 6.839844 C 33.320312 4.753906 34.066406 7.648438 33.914062 10.101562 C 27.296875 8.929688 22.042969 15.238281 21.316406 16.160156 L 21.292969 16.183594 C 21.25 16.238281 21.226562 16.269531 21.226562 16.269531 L 21.660156 15.921875 C 26.367188 12.199219 30.785156 11.832031 32.671875 11.867188 L 34.648438 15.15625 C 34.648438 15.15625 25.207031 16.539062 21.097656 23.976562 C 21.097656 23.976562 27.984375 17.066406 37.546875 16.804688 L 34.9375 11.640625 C 37.097656 5.035156 32.585938 3.472656 29.816406 4.523438 C 29.695312 4.566406 29.589844 4.589844 29.507812 4.605469 C 29.363281 3.371094 28.726562 2.191406 26.902344 2.035156 C 26.601562 2.011719 26.273438 2.011719 25.90625 2.042969 C 21.460938 2.453125 19.730469 6.585938 18.839844 8.796875 C 18.832031 8.8125 18.828125 8.839844 18.820312 8.863281 C 18.613281 8.875 18.449219 8.886719 18.363281 8.890625 C 17.90625 8.910156 17.449219 8.976562 16.988281 9.082031 C 13.484375 9.898438 11.953125 13.695312 12.578125 16.003906 C 13.121094 18.03125 14.390625 18.5625 16.058594 19.0625 Z M 16.070312 19.070312 " fill-opacity="1" fill-rule="evenodd"/></g></g></g></svg>