<svg xmlns="http://www.w3.org/2000/svg" xmlns:xlink="http://www.w3.org/1999/xlink" width="250" zoomAndPan="magnify" viewBox="0 0 187.5 67.499998" height="90" preserveAspectRatio="xMidYMid meet" version="1.0"><defs><g/><clipPath id="id1"><path d="M 24 45 L 130 45 L 130 55 L 24 55 Z M 24 45 " clip-rule="nonzero"/></clipPath><clipPath id="id2"><path d="M 43.246094 10.6875 L 129.347656 52.34375 L 109.929688 92.484375 L 23.824219 50.828125 Z M 43.246094 10.6875 " clip-rule="nonzero"/></clipPath><clipPath id="id3"><path d="M 43.246094 10.6875 L 129.347656 52.34375 L 109.929688 92.484375 L 23.824219 50.828125 Z M 43.246094 10.6875 " clip-rule="nonzero"/></clipPath><clipPath id="id4"><path d="M 13 1 L 34 1 L 34 19 L 13 19 Z M 13 1 " clip-rule="nonzero"/></clipPath><clipPath id="id5"><path d="M 14.523438 1.015625 L 34.492188 2.65625 L 33.0625 20.046875 L 13.09375 18.40625 Z M 14.523438 1.015625 " clip-rule="nonzero"/></clipPath><clipPath id="id6"><path d="M 14.523438 1.015625 L 34.492188 2.65625 L 33.0625 20.046875 L 13.09375 18.40625 Z M 14.523438 1.015625 " clip-rule="nonzero"/></clipPath></defs><g clip-path="url(#id1)"><g clip-path="url(#id2)"><g clip-path="url(#id3)"><path fill="#db9232" d="M 25.144531 48.703125 C 27.785156 46.910156 111.367188 41.566406 129.148438 52.761719 C 108.777344 48.023438 53.726562 49.496094 35.472656 52.992188 C 36.527344 53.390625 37.988281 53.765625 40.054688 54.097656 C 39.148438 54.921875 33.382812 53.992188 30.921875 53.316406 C 26.925781 52.34375 22.8125 50.289062 25.140625 48.714844 Z M 25.144531 48.703125 " fill-opacity="1" fill-rule="nonzero"/></g></g></g><g fill="#db9232" fill-opacity="1"><g transform="translate(18.436193, 38.087767)"><g><path d="M 17.171875 -16.667969 C 17.171875 -16.578125 17.125 -16.53125 17.125 -16.441406 C 17.125 -16.210938 17.351562 -15.9375 17.671875 -15.9375 C 18.675781 -15.9375 19.363281 -19.726562 19.363281 -20.503906 C 19.363281 -21.738281 18.722656 -23.792969 16.53125 -23.792969 C 10 -23.792969 0.503906 -9.363281 0.503906 -3.105469 C 0.503906 -1.003906 1.917969 1.871094 5.296875 1.871094 C 10.503906 1.871094 16.210938 -6.074219 16.621094 -9.5 C 17.261719 -9.636719 17.992188 -9.636719 18.632812 -9.726562 C 18.996094 -9.816406 19.132812 -10 19.132812 -10.230469 C 19.132812 -10.503906 18.859375 -11.371094 18.449219 -11.460938 C 18.359375 -11.507812 17.765625 -11.507812 17.628906 -11.507812 C 14.476562 -11.507812 9.40625 -9.636719 6.53125 -8.039062 C 6.300781 -7.898438 6.027344 -7.71875 5.890625 -7.582031 C 5.664062 -7.398438 5.617188 -7.125 5.617188 -6.941406 C 5.617188 -6.621094 5.707031 -6.121094 6.121094 -6.121094 C 6.164062 -6.121094 6.300781 -6.121094 6.484375 -6.300781 C 8.449219 -7.582031 12.605469 -8.722656 15.207031 -9.226562 C 14.15625 -6.941406 8.492188 0.457031 5.070312 0.457031 C 3.289062 0.457031 3.015625 -1.917969 3.015625 -2.921875 C 3.015625 -6.53125 5.664062 -11.003906 7.808594 -13.882812 C 8.949219 -15.480469 14.066406 -21.78125 16.851562 -21.78125 C 17.855469 -21.78125 18.175781 -20.414062 18.175781 -19.773438 C 18.175781 -18.675781 17.671875 -17.671875 17.171875 -16.667969 Z M 17.171875 -16.667969 "/></g></g></g><g fill="#db9232" fill-opacity="1"><g transform="translate(35.286263, 38.087767)"><g><path d="M 0.320312 -2.558594 C 0.457031 -1.097656 1.371094 0 2.878906 0 C 7.167969 0 12.605469 -10.503906 8.082031 -12.695312 C 7.855469 -12.832031 7.535156 -12.878906 7.214844 -12.878906 C 5.980469 -12.878906 4.796875 -11.917969 4.0625 -10.960938 C 3.378906 -10.960938 3.058594 -10.640625 2.695312 -10.046875 C 1.460938 -8.175781 0.046875 -4.839844 0.320312 -2.558594 Z M 3.332031 -5.207031 C 3.882812 -6.4375 4.796875 -8.402344 5.527344 -9.40625 C 5.707031 -9.589844 6.074219 -9.910156 5.9375 -10.136719 C 5.890625 -10.320312 5.617188 -10.503906 5.386719 -10.59375 C 5.890625 -11.417969 6.574219 -11.828125 7.125 -11.828125 C 7.398438 -11.828125 7.582031 -11.691406 7.808594 -11.597656 C 10.59375 -9.636719 4.796875 -1.277344 2.921875 -1.277344 C 2.601562 -1.277344 2.421875 -1.460938 2.375 -1.917969 C 2.285156 -2.878906 3.105469 -4.796875 3.332031 -5.207031 Z M 3.332031 -5.207031 "/></g></g></g><g fill="#db9232" fill-opacity="1"><g transform="translate(44.830069, 38.087767)"><g><path d="M 1.550781 -0.367188 C 2.878906 -0.367188 6.027344 -4.933594 6.667969 -5.980469 L 6.621094 -5.707031 C 6.4375 -4.519531 6.347656 -3.015625 7.167969 -2.144531 C 7.488281 -1.871094 7.855469 -1.691406 8.175781 -1.691406 C 10.59375 -1.691406 14.246094 -7.671875 15.160156 -8.949219 C 15.070312 -9.316406 14.886719 -9.5 14.660156 -9.5 C 14.613281 -9.5 14.566406 -9.453125 14.566406 -9.453125 C 14.339844 -9.132812 10.410156 -3.515625 9.226562 -3.515625 C 9.132812 -3.515625 9.042969 -3.5625 8.996094 -3.652344 C 8.90625 -3.882812 8.949219 -4.339844 9.085938 -5.070312 C 9.5 -6.667969 10.867188 -9.40625 11.144531 -9.863281 C 11.554688 -10.550781 10.410156 -10.960938 9.636719 -10.960938 C 8.632812 -10.960938 7.71875 -9.226562 7.398438 -8.449219 C 5.707031 -6.121094 2.96875 -2.328125 2.328125 -2.375 C 1.414062 -3.105469 5.84375 -11.050781 6.941406 -12.054688 C 6.804688 -12.832031 6.121094 -13.5625 5.386719 -13.5625 C 5.070312 -13.5625 4.703125 -13.425781 4.429688 -13.015625 C 2.328125 -10.410156 -2.101562 -1.871094 0.867188 -0.546875 C 1.097656 -0.457031 1.324219 -0.367188 1.550781 -0.367188 Z M 1.550781 -0.367188 "/></g></g></g><g fill="#db9232" fill-opacity="1"><g transform="translate(56.428763, 38.087767)"><g><path d="M 8.039062 -14.386719 C 7.898438 -14.566406 7.671875 -14.75 7.488281 -14.933594 C 8.128906 -15.984375 8.632812 -16.988281 8.949219 -17.855469 C 9.226562 -18.632812 8.90625 -20.6875 7.855469 -20.59375 C 5.9375 -20.457031 3.789062 -17.035156 6.074219 -14.75 C 4.65625 -12.375 3.058594 -9.316406 2.054688 -7.945312 C 2.007812 -7.855469 2.054688 -7.398438 2.375 -7.398438 C 2.464844 -7.398438 2.601562 -7.445312 2.878906 -7.625 C 3.925781 -8.949219 4.886719 -11.050781 6.851562 -13.929688 C 6.988281 -13.746094 7.125 -13.5625 7.167969 -13.425781 C 8.21875 -11.417969 2.421875 -4.339844 2.511719 -0.867188 C 2.511719 0.183594 3.015625 1.871094 4.339844 1.871094 C 4.476562 1.871094 4.566406 1.828125 4.703125 1.78125 C 7.125 0.59375 12.238281 -7.71875 12.878906 -8.585938 C 12.96875 -8.722656 12.878906 -8.949219 12.695312 -9.042969 C 12.605469 -9.085938 12.558594 -9.132812 12.46875 -9.132812 C 12.375 -9.132812 12.328125 -9.085938 12.191406 -8.996094 C 11.144531 -7.582031 5.890625 0.503906 4.566406 0.273438 C 5.296875 -2.375 8.082031 -7.125 8.722656 -8.90625 C 9.40625 -10.59375 9.957031 -13.152344 8.039062 -14.386719 Z M 7.71875 -18.675781 C 7.945312 -18.675781 7.992188 -18.402344 7.71875 -17.671875 C 7.535156 -17.078125 7.214844 -16.441406 6.894531 -15.9375 C 6.074219 -17.035156 7.308594 -18.675781 7.71875 -18.675781 Z M 7.71875 -18.675781 "/></g></g></g><g fill="#db9232" fill-opacity="1"><g transform="translate(65.835573, 38.087767)"><g><path d="M 13.609375 -2.558594 L 13.609375 -2.695312 C 14.523438 -5.433594 15.710938 -7.898438 17.078125 -10.410156 C 17.582031 -11.417969 16.074219 -11.964844 15.34375 -12.011719 C 15.253906 -12.011719 15.207031 -12.011719 15.160156 -11.964844 C 13.699219 -11.597656 10.503906 -6.804688 9.542969 -5.433594 C 9.40625 -5.296875 9.363281 -5.113281 9.316406 -5.113281 C 9.316406 -5.113281 9.363281 -5.207031 9.40625 -5.433594 C 10.503906 -7.898438 11.828125 -10.230469 12.96875 -12.648438 L 13.015625 -12.742188 C 13.242188 -13.335938 13.242188 -13.835938 12.832031 -14.246094 C 12.511719 -14.566406 11.875 -14.886719 11.371094 -14.886719 C 11.324219 -14.886719 11.1875 -14.886719 11.144531 -14.839844 C 10.503906 -14.613281 2.878906 -4.0625 2.054688 -2.832031 L 5.800781 -9.863281 C 6.027344 -10.320312 6.210938 -10.503906 5.890625 -10.960938 L 5.800781 -11.003906 C 5.386719 -11.460938 4.839844 -11.644531 4.203125 -11.644531 C 3.5625 -11.644531 3.195312 -11.507812 2.921875 -10.914062 C 1.277344 -7.398438 0.914062 -6.851562 -0.410156 -3.152344 C -0.640625 -2.421875 -0.820312 -1.597656 -0.320312 -0.960938 C 0 -0.59375 0.914062 -0.046875 1.414062 -0.0898438 C 1.691406 -0.0898438 2.007812 -0.777344 2.191406 -1.003906 C 4.476562 -4.476562 6.988281 -7.898438 9.542969 -11.097656 C 8.492188 -9.226562 7.671875 -7.445312 7.078125 -5.617188 C 6.894531 -4.933594 6.714844 -4.109375 7.03125 -3.378906 C 7.167969 -2.921875 7.71875 -2.328125 8.21875 -2.285156 C 8.492188 -2.328125 8.585938 -2.464844 8.675781 -2.601562 C 10.230469 -4.839844 11.875 -6.941406 13.515625 -9.085938 C 13.609375 -9.179688 13.652344 -9.316406 13.652344 -9.316406 C 13.699219 -9.316406 13.652344 -9.179688 13.5625 -9.042969 C 12.742188 -7.125 11.964844 -5.207031 11.507812 -3.152344 C 11.371094 -2.464844 11.371094 -1.414062 12.101562 -0.914062 C 12.375 -0.777344 12.605469 -0.640625 12.878906 -0.640625 C 15.574219 -0.640625 19.589844 -6.4375 21.144531 -8.8125 C 21.050781 -9.132812 20.914062 -9.316406 20.734375 -9.316406 C 20.6875 -9.316406 20.640625 -9.316406 20.59375 -9.226562 C 20.503906 -9.132812 19.683594 -7.992188 18.722656 -6.714844 C 18.175781 -6.027344 14.660156 -1.871094 13.652344 -1.871094 C 13.515625 -1.871094 13.472656 -2.054688 13.609375 -2.558594 Z M 13.609375 -2.558594 "/></g></g></g><g fill="#db9232" fill-opacity="1"><g transform="translate(83.324936, 38.087767)"><g><path d="M 8.722656 -3.5625 C 8.632812 -3.835938 8.675781 -4.292969 8.90625 -5.023438 C 9.085938 -6.121094 9.679688 -8.128906 10.59375 -8.859375 C 10.960938 -9.085938 10.914062 -9.132812 10.640625 -9.453125 C 10.183594 -10 9.679688 -10.230469 9.226562 -10.230469 C 9.042969 -10.230469 8.859375 -10.183594 8.632812 -10.09375 C 8.996094 -11.417969 9.226562 -12.878906 8.21875 -13.972656 C 7.945312 -14.246094 7.535156 -14.523438 7.078125 -14.523438 C 6.574219 -14.523438 6.027344 -14.246094 5.386719 -13.699219 C 2.648438 -11.460938 -2.464844 -2.285156 1.140625 -0.640625 C 1.414062 -0.503906 1.597656 -0.410156 1.871094 -0.410156 C 1.964844 -0.410156 2.054688 -0.457031 2.144531 -0.457031 C 3.378906 -1.003906 5.023438 -3.699219 6.394531 -5.9375 C 6.394531 -5.84375 6.394531 -5.800781 6.347656 -5.664062 C 6.164062 -4.429688 6.027344 -2.921875 6.941406 -2.054688 C 7.214844 -1.78125 7.535156 -1.597656 7.945312 -1.597656 C 10.410156 -1.597656 14.109375 -7.625 15.023438 -8.949219 C 14.886719 -9.453125 14.75 -9.453125 14.386719 -9.453125 C 14.15625 -9.132812 10.183594 -3.425781 8.996094 -3.425781 C 8.90625 -3.425781 8.8125 -3.46875 8.722656 -3.5625 Z M 6.851562 -11.324219 C 7.214844 -11.644531 7.488281 -11.875 7.71875 -11.875 C 8.082031 -11.875 8.175781 -11.144531 7.992188 -9.636719 C 7.582031 -9.316406 7.351562 -8.859375 7.125 -8.402344 C 5.433594 -6.074219 3.289062 -2.464844 2.601562 -2.464844 C 1.964844 -3.015625 5.070312 -9.40625 6.851562 -11.324219 Z M 6.851562 -11.324219 "/></g></g></g><g fill="#db9232" fill-opacity="1"><g transform="translate(94.512651, 38.087767)"><g><path d="M 8.996094 -9.816406 L 8.996094 -9.863281 C 9.132812 -10.136719 9.179688 -10.410156 9.226562 -10.6875 C 9.542969 -12.191406 8.492188 -13.472656 7.03125 -13.472656 C 6.53125 -13.472656 6.027344 -13.335938 5.480469 -12.96875 C 2.648438 -11.050781 -1.691406 -4.109375 0.960938 -0.867188 C 1.460938 -0.183594 2.191406 0.0898438 3.058594 0.0898438 C 6.347656 0.0898438 9.453125 -4.292969 11.097656 -6.621094 C 11.691406 -7.488281 12.191406 -8.175781 12.46875 -8.539062 C 12.46875 -8.90625 12.191406 -9.042969 12.011719 -9.042969 C 11.964844 -9.042969 11.917969 -9.042969 11.917969 -8.996094 C 10.09375 -6.484375 6.347656 -1.414062 2.96875 -1.414062 C -0.046875 -1.78125 5.980469 -11.597656 7.855469 -11.597656 C 7.945312 -11.597656 8.082031 -11.554688 8.128906 -11.460938 C 8.492188 -10.824219 7.351562 -8.8125 6.851562 -8.3125 C 6.667969 -8.082031 6.074219 -7.535156 6.53125 -7.351562 C 6.574219 -7.308594 6.667969 -7.308594 6.714844 -7.308594 C 7.582031 -7.308594 8.675781 -9.179688 8.996094 -9.816406 Z M 8.996094 -9.816406 "/></g></g></g><g fill="#db9232" fill-opacity="1"><g transform="translate(103.55415, 38.087767)"><g><path d="M 8.039062 -14.386719 C 7.898438 -14.566406 7.671875 -14.75 7.488281 -14.933594 C 8.128906 -15.984375 8.632812 -16.988281 8.949219 -17.855469 C 9.226562 -18.632812 8.90625 -20.6875 7.855469 -20.59375 C 5.9375 -20.457031 3.789062 -17.035156 6.074219 -14.75 C 4.65625 -12.375 3.058594 -9.316406 2.054688 -7.945312 C 2.007812 -7.855469 2.054688 -7.398438 2.375 -7.398438 C 2.464844 -7.398438 2.601562 -7.445312 2.878906 -7.625 C 3.925781 -8.949219 4.886719 -11.050781 6.851562 -13.929688 C 6.988281 -13.746094 7.125 -13.5625 7.167969 -13.425781 C 8.21875 -11.417969 2.421875 -4.339844 2.511719 -0.867188 C 2.511719 0.183594 3.015625 1.871094 4.339844 1.871094 C 4.476562 1.871094 4.566406 1.828125 4.703125 1.78125 C 7.125 0.59375 12.238281 -7.71875 12.878906 -8.585938 C 12.96875 -8.722656 12.878906 -8.949219 12.695312 -9.042969 C 12.605469 -9.085938 12.558594 -9.132812 12.46875 -9.132812 C 12.375 -9.132812 12.328125 -9.085938 12.191406 -8.996094 C 11.144531 -7.582031 5.890625 0.503906 4.566406 0.273438 C 5.296875 -2.375 8.082031 -7.125 8.722656 -8.90625 C 9.40625 -10.59375 9.957031 -13.152344 8.039062 -14.386719 Z M 7.71875 -18.675781 C 7.945312 -18.675781 7.992188 -18.402344 7.71875 -17.671875 C 7.535156 -17.078125 7.214844 -16.441406 6.894531 -15.9375 C 6.074219 -17.035156 7.308594 -18.675781 7.71875 -18.675781 Z M 7.71875 -18.675781 "/></g></g></g><g fill="#db9232" fill-opacity="1"><g transform="translate(112.96096, 38.087767)"><g><path d="M 8.722656 -3.5625 C 8.632812 -3.835938 8.675781 -4.292969 8.90625 -5.023438 C 9.085938 -6.121094 9.679688 -8.128906 10.59375 -8.859375 C 10.960938 -9.085938 10.914062 -9.132812 10.640625 -9.453125 C 10.183594 -10 9.679688 -10.230469 9.226562 -10.230469 C 9.042969 -10.230469 8.859375 -10.183594 8.632812 -10.09375 C 8.996094 -11.417969 9.226562 -12.878906 8.21875 -13.972656 C 7.945312 -14.246094 7.535156 -14.523438 7.078125 -14.523438 C 6.574219 -14.523438 6.027344 -14.246094 5.386719 -13.699219 C 2.648438 -11.460938 -2.464844 -2.285156 1.140625 -0.640625 C 1.414062 -0.503906 1.597656 -0.410156 1.871094 -0.410156 C 1.964844 -0.410156 2.054688 -0.457031 2.144531 -0.457031 C 3.378906 -1.003906 5.023438 -3.699219 6.394531 -5.9375 C 6.394531 -5.84375 6.394531 -5.800781 6.347656 -5.664062 C 6.164062 -4.429688 6.027344 -2.921875 6.941406 -2.054688 C 7.214844 -1.78125 7.535156 -1.597656 7.945312 -1.597656 C 10.410156 -1.597656 14.109375 -7.625 15.023438 -8.949219 C 14.886719 -9.453125 14.75 -9.453125 14.386719 -9.453125 C 14.15625 -9.132812 10.183594 -3.425781 8.996094 -3.425781 C 8.90625 -3.425781 8.8125 -3.46875 8.722656 -3.5625 Z M 6.851562 -11.324219 C 7.214844 -11.644531 7.488281 -11.875 7.71875 -11.875 C 8.082031 -11.875 8.175781 -11.144531 7.992188 -9.636719 C 7.582031 -9.316406 7.351562 -8.859375 7.125 -8.402344 C 5.433594 -6.074219 3.289062 -2.464844 2.601562 -2.464844 C 1.964844 -3.015625 5.070312 -9.40625 6.851562 -11.324219 Z M 6.851562 -11.324219 "/></g></g></g><g fill="#db9232" fill-opacity="1"><g transform="translate(124.148674, 38.087767)"><g><path d="M 8.996094 -9.816406 L 8.996094 -9.863281 C 9.132812 -10.136719 9.179688 -10.410156 9.226562 -10.6875 C 9.542969 -12.191406 8.492188 -13.472656 7.03125 -13.472656 C 6.53125 -13.472656 6.027344 -13.335938 5.480469 -12.96875 C 2.648438 -11.050781 -1.691406 -4.109375 0.960938 -0.867188 C 1.460938 -0.183594 2.191406 0.0898438 3.058594 0.0898438 C 6.347656 0.0898438 9.453125 -4.292969 11.097656 -6.621094 C 11.691406 -7.488281 12.191406 -8.175781 12.46875 -8.539062 C 12.46875 -8.90625 12.191406 -9.042969 12.011719 -9.042969 C 11.964844 -9.042969 11.917969 -9.042969 11.917969 -8.996094 C 10.09375 -6.484375 6.347656 -1.414062 2.96875 -1.414062 C -0.046875 -1.78125 5.980469 -11.597656 7.855469 -11.597656 C 7.945312 -11.597656 8.082031 -11.554688 8.128906 -11.460938 C 8.492188 -10.824219 7.351562 -8.8125 6.851562 -8.3125 C 6.667969 -8.082031 6.074219 -7.535156 6.53125 -7.351562 C 6.574219 -7.308594 6.667969 -7.308594 6.714844 -7.308594 C 7.582031 -7.308594 8.675781 -9.179688 8.996094 -9.816406 Z M 8.996094 -9.816406 "/></g></g></g><g fill="#db9232" fill-opacity="1"><g transform="translate(133.190173, 38.087767)"><g><path d="M -1.414062 8.8125 C -1.003906 8.8125 -0.503906 8.675781 -0.046875 8.585938 C 5.113281 7.125 8.996094 -4.382812 10.640625 -8.128906 C 11.050781 -9.042969 11.460938 -10 11.875 -10.867188 C 12.238281 -11.828125 11.144531 -12.148438 10.410156 -12.148438 C 10.046875 -12.148438 9.679688 -12.101562 9.542969 -11.734375 C 8.449219 -9.636719 3.378906 -0.820312 1.964844 -0.867188 C 0.820312 -0.914062 3.195312 -6.074219 3.425781 -6.53125 C 4.109375 -7.945312 5.070312 -9.816406 6.074219 -10.914062 C 6.347656 -11.1875 6.4375 -11.371094 6.210938 -11.734375 C 5.9375 -12.375 5.296875 -12.648438 4.613281 -12.648438 C 4.292969 -12.648438 4.109375 -12.421875 3.925781 -12.148438 C 2.054688 -9.863281 -0.273438 -4.933594 -0.0898438 -1.964844 C -0.046875 -0.867188 0.503906 0.320312 1.828125 0.367188 C 3.652344 0.457031 6.121094 -4.382812 6.988281 -5.707031 C 5.023438 -0.683594 1.644531 7.214844 -2.144531 7.214844 C -3.652344 7.214844 -4.109375 6.121094 -4.292969 4.839844 C -4.339844 4.519531 -4.429688 4.339844 -4.703125 4.292969 C -5.023438 4.203125 -4.933594 4.65625 -4.886719 4.886719 C -4.65625 6.894531 -3.699219 8.8125 -1.414062 8.8125 Z M -1.414062 8.8125 "/></g></g></g><g clip-path="url(#id4)"><g clip-path="url(#id5)"><g clip-path="url(#id6)"><path fill="#db9232" d="M 16.574219 15.148438 L 19.035156 18.894531 C 19.035156 18.894531 21.988281 13.699219 28.132812 12.335938 C 28.132812 12.335938 22.691406 12.949219 19.054688 16.816406 L 18.011719 15.238281 L 17.628906 14.671875 L 18.117188 14.046875 C 17.078125 13.902344 16.03125 13.855469 15.328125 12.726562 C 14.628906 11.597656 15.921875 8.792969 18.203125 8.269531 C 18.304688 8.246094 18.40625 8.226562 18.507812 8.210938 C 18.308594 9.15625 18.074219 10.390625 18.011719 10.511719 C 19.25 8.144531 24.433594 -0.480469 26.910156 6.214844 C 26.910156 6.214844 26.984375 5.984375 27.058594 5.628906 C 30.171875 4.007812 30.761719 6.265625 30.644531 8.175781 C 25.421875 7.257812 21.285156 12.167969 20.710938 12.886719 L 20.691406 12.90625 C 20.660156 12.949219 20.640625 12.972656 20.640625 12.972656 L 20.980469 12.703125 C 24.691406 9.804688 28.179688 9.519531 29.664062 9.550781 L 31.230469 12.113281 C 31.230469 12.113281 23.78125 13.183594 20.546875 18.976562 C 20.546875 18.976562 25.972656 13.597656 33.515625 13.402344 L 31.453125 9.375 C 33.152344 4.230469 29.59375 3.007812 27.40625 3.824219 C 27.3125 3.859375 27.230469 3.875 27.164062 3.886719 C 27.046875 2.925781 26.546875 2.007812 25.105469 1.886719 C 24.867188 1.867188 24.609375 1.863281 24.320312 1.890625 C 20.8125 2.207031 19.453125 5.425781 18.75 7.148438 C 18.746094 7.160156 18.738281 7.179688 18.734375 7.199219 C 18.570312 7.207031 18.445312 7.21875 18.375 7.21875 C 18.011719 7.234375 17.652344 7.285156 17.289062 7.367188 C 14.527344 8 13.324219 10.960938 13.816406 12.757812 C 14.246094 14.335938 15.246094 14.753906 16.566406 15.144531 Z M 16.574219 15.148438 " fill-opacity="1" fill-rule="evenodd"/></g></g></g><g fill="#db9232" fill-opacity="1"><g transform="translate(127.446145, 63.002108)"><g><path d="M 8.859375 -2.546875 L 3.640625 -2.546875 L 2.734375 0 L 0.609375 0 L 5.078125 -12.46875 L 7.4375 -12.46875 L 11.90625 0 L 9.75 0 Z M 8.28125 -4.21875 L 6.25 -10 L 4.21875 -4.21875 Z M 8.28125 -4.21875 "/></g></g></g><g fill="#db9232" fill-opacity="1"><g transform="translate(139.933067, 63.002108)"><g><path d="M 0.65625 -4.984375 C 0.65625 -5.972656 0.863281 -6.847656 1.28125 -7.609375 C 1.695312 -8.378906 2.257812 -8.972656 2.96875 -9.390625 C 3.675781 -9.816406 4.46875 -10.03125 5.34375 -10.03125 C 5.988281 -10.03125 6.625 -9.890625 7.25 -9.609375 C 7.875 -9.328125 8.375 -8.957031 8.75 -8.5 L 8.75 -13.265625 L 10.8125 -13.265625 L 10.8125 0 L 8.75 0 L 8.75 -1.484375 C 8.414062 -1.003906 7.953125 -0.609375 7.359375 -0.296875 C 6.765625 0.00390625 6.085938 0.15625 5.328125 0.15625 C 4.460938 0.15625 3.675781 -0.0546875 2.96875 -0.484375 C 2.257812 -0.921875 1.695312 -1.53125 1.28125 -2.3125 C 0.863281 -3.101562 0.65625 -3.992188 0.65625 -4.984375 Z M 8.75 -4.953125 C 8.75 -5.628906 8.609375 -6.21875 8.328125 -6.71875 C 8.046875 -7.21875 7.675781 -7.597656 7.21875 -7.859375 C 6.769531 -8.128906 6.28125 -8.265625 5.75 -8.265625 C 5.226562 -8.265625 4.738281 -8.132812 4.28125 -7.875 C 3.832031 -7.613281 3.46875 -7.234375 3.1875 -6.734375 C 2.90625 -6.242188 2.765625 -5.660156 2.765625 -4.984375 C 2.765625 -4.296875 2.90625 -3.695312 3.1875 -3.1875 C 3.46875 -2.675781 3.835938 -2.285156 4.296875 -2.015625 C 4.753906 -1.742188 5.238281 -1.609375 5.75 -1.609375 C 6.28125 -1.609375 6.769531 -1.738281 7.21875 -2 C 7.675781 -2.269531 8.046875 -2.65625 8.328125 -3.15625 C 8.609375 -3.664062 8.75 -4.265625 8.75 -4.953125 Z M 8.75 -4.953125 "/></g></g></g><g fill="#db9232" fill-opacity="1"><g transform="translate(152.079603, 63.002108)"><g><path d="M 13.296875 -10.03125 C 14.078125 -10.03125 14.773438 -9.867188 15.390625 -9.546875 C 16.003906 -9.222656 16.484375 -8.742188 16.828125 -8.109375 C 17.179688 -7.484375 17.359375 -6.722656 17.359375 -5.828125 L 17.359375 0 L 15.34375 0 L 15.34375 -5.515625 C 15.34375 -6.398438 15.117188 -7.078125 14.671875 -7.546875 C 14.234375 -8.023438 13.632812 -8.265625 12.875 -8.265625 C 12.101562 -8.265625 11.492188 -8.023438 11.046875 -7.546875 C 10.597656 -7.078125 10.375 -6.398438 10.375 -5.515625 L 10.375 0 L 8.359375 0 L 8.359375 -5.515625 C 8.359375 -6.398438 8.132812 -7.078125 7.6875 -7.546875 C 7.25 -8.023438 6.644531 -8.265625 5.875 -8.265625 C 5.113281 -8.265625 4.507812 -8.023438 4.0625 -7.546875 C 3.613281 -7.078125 3.390625 -6.398438 3.390625 -5.515625 L 3.390625 0 L 1.34375 0 L 1.34375 -9.875 L 3.390625 -9.875 L 3.390625 -8.75 C 3.722656 -9.15625 4.144531 -9.46875 4.65625 -9.6875 C 5.175781 -9.914062 5.726562 -10.03125 6.3125 -10.03125 C 7.09375 -10.03125 7.796875 -9.863281 8.421875 -9.53125 C 9.046875 -9.195312 9.523438 -8.710938 9.859375 -8.078125 C 10.160156 -8.679688 10.625 -9.15625 11.25 -9.5 C 11.882812 -9.851562 12.566406 -10.03125 13.296875 -10.03125 Z M 13.296875 -10.03125 "/></g></g></g><g fill="#db9232" fill-opacity="1"><g transform="translate(170.693538, 63.002108)"><g><path d="M 2.390625 -11.1875 C 2.015625 -11.1875 1.703125 -11.3125 1.453125 -11.5625 C 1.203125 -11.8125 1.078125 -12.117188 1.078125 -12.484375 C 1.078125 -12.859375 1.203125 -13.171875 1.453125 -13.421875 C 1.703125 -13.671875 2.015625 -13.796875 2.390625 -13.796875 C 2.742188 -13.796875 3.046875 -13.671875 3.296875 -13.421875 C 3.546875 -13.171875 3.671875 -12.859375 3.671875 -12.484375 C 3.671875 -12.117188 3.546875 -11.8125 3.296875 -11.5625 C 3.046875 -11.3125 2.742188 -11.1875 2.390625 -11.1875 Z M 3.390625 -9.875 L 3.390625 0 L 1.34375 0 L 1.34375 -9.875 Z M 3.390625 -9.875 "/></g></g></g><g fill="#db9232" fill-opacity="1"><g transform="translate(175.423162, 63.002108)"><g><path d="M 6.328125 -10.03125 C 7.097656 -10.03125 7.789062 -9.867188 8.40625 -9.546875 C 9.03125 -9.222656 9.515625 -8.742188 9.859375 -8.109375 C 10.203125 -7.484375 10.375 -6.722656 10.375 -5.828125 L 10.375 0 L 8.359375 0 L 8.359375 -5.515625 C 8.359375 -6.398438 8.132812 -7.078125 7.6875 -7.546875 C 7.25 -8.023438 6.644531 -8.265625 5.875 -8.265625 C 5.113281 -8.265625 4.507812 -8.023438 4.0625 -7.546875 C 3.613281 -7.078125 3.390625 -6.398438 3.390625 -5.515625 L 3.390625 0 L 1.34375 0 L 1.34375 -9.875 L 3.390625 -9.875 L 3.390625 -8.75 C 3.722656 -9.15625 4.148438 -9.46875 4.671875 -9.6875 C 5.191406 -9.914062 5.742188 -10.03125 6.328125 -10.03125 Z M 6.328125 -10.03125 "/></g></g></g></svg>